<svg viewBox="0 0 68 62" fill="none" xmlns="http://www.w3.org/2000/svg">
    <path
        d="M67.1561 22.537C66.9466 21.9816 66.5609 21.4936 66.0468 21.1332C65.5326 20.7728 64.9124 20.5558 64.2628 20.509L45.2594 19.15L37.0361 2.76704C36.7742 2.23938 36.3482 1.79121 35.8096 1.47662C35.2709 1.16202 34.6426 0.994458 34.0005 0.994141C33.3584 0.993824 32.7299 1.16077 32.1908 1.47483C31.6518 1.78889 31.2253 2.23664 30.9628 2.76404L22.7394 19.15L3.7361 20.509C3.09762 20.5546 2.48723 20.7647 1.97795 21.1142C1.46868 21.4638 1.08208 21.938 0.864414 22.4801C0.646748 23.0223 0.607229 23.6093 0.750586 24.1712C0.893943 24.733 1.21411 25.2457 1.67277 25.648L15.7161 37.969L10.7494 57.325C10.5986 57.9109 10.647 58.5241 10.8882 59.085C11.1294 59.6458 11.5523 60.1285 12.1021 60.4703C12.6519 60.8122 13.3032 60.9974 13.9714 61.002C14.6396 61.0066 15.2939 60.8303 15.8494 60.496L33.9994 49.606L52.1494 60.496C52.7172 60.8353 53.3868 61.01 54.0682 60.9965C54.7496 60.9831 55.41 60.7822 55.9607 60.4208C56.5115 60.0595 56.926 59.555 57.1487 58.9753C57.3713 58.3955 57.3913 57.7683 57.2061 57.178L51.1094 37.978L66.2294 25.732C67.2194 24.928 67.5828 23.674 67.1561 22.537Z"
        fill="none" />
</svg>