<svg viewBox="0 0 98 97" fill="none" xmlns="http://www.w3.org/2000/svg">
    <path
        d="M49.6615 94.8719C38.8235 94.8719 35.4441 96.5464 33.2656 87.7848H66.3352C64.2655 95.5793 59.6657 94.8719 49.6615 94.8719Z"
        fill="white" stroke="#2F80ED" stroke-width="2.5" />
    <path
        d="M5.84142 58.2983C5.83065 50.3837 4.29723 47.9003 13.0566 46.2975L13.0895 70.4469C5.29294 68.9461 5.85218 66.2128 5.84142 58.2983Z"
        fill="white" stroke="#2F80ED" stroke-width="2.5" />
    <path
        d="M2.06271 58.3407C2.05638 53.6846 1.25691 52.2235 5.82227 51.2814L5.84158 65.4883C1.77781 64.6046 2.06904 62.9967 2.06271 58.3407Z"
        fill="white" stroke="#2F80ED" stroke-width="2.5" />
    <path
        d="M92.8246 58.2983C92.8354 50.3837 94.3688 47.9003 85.6094 46.2975L85.5765 70.4469C93.3731 68.9461 92.8138 66.2128 92.8246 58.2983Z"
        fill="white" stroke="#2F80ED" stroke-width="2.5" />
    <path
        d="M96.6033 58.3407C96.6096 53.6846 97.4091 52.2235 92.8438 51.2814L92.8244 65.4883C96.8882 64.6046 96.597 62.9967 96.6033 58.3407Z"
        fill="white" stroke="#2F80ED" stroke-width="2.5" />
    <path
        d="M38.0274 18.6392C38.0274 23.6617 37.1714 28.1498 35.8353 31.3358C35.1662 32.9314 34.4013 34.1414 33.6158 34.9336C32.835 35.7212 32.1077 36.0285 31.461 36.0285C30.8143 36.0285 30.087 35.7212 29.3061 34.9336C28.5207 34.1414 27.7558 32.9314 27.0867 31.3358C25.7506 28.1498 24.8945 23.6617 24.8945 18.6392C24.8945 13.6168 25.7506 9.12869 27.0867 5.94272C27.7558 4.34711 28.5207 3.13709 29.3061 2.34485C30.087 1.55725 30.8143 1.25 31.461 1.25C32.1077 1.25 32.835 1.55725 33.6158 2.34485C34.4013 3.13709 35.1662 4.34711 35.8353 5.94272C37.1714 9.12869 38.0274 13.6168 38.0274 18.6392Z"
        fill="white" stroke="#2F80ED" stroke-width="2.5" />
    <path
        d="M74.7052 18.6392C74.7052 23.6617 73.8491 28.1498 72.513 31.3358C71.8439 32.9314 71.0791 34.1414 70.2936 34.9336C69.5127 35.7212 68.7854 36.0285 68.1387 36.0285C67.492 36.0285 66.7648 35.7212 65.9839 34.9336C65.1984 34.1414 64.4335 32.9314 63.7644 31.3358C62.4283 28.1498 61.5723 23.6617 61.5723 18.6392C61.5723 13.6168 62.4283 9.12869 63.7644 5.94272C64.4335 4.34711 65.1984 3.13709 65.9839 2.34485C66.7648 1.55725 67.492 1.25 68.1387 1.25C68.7854 1.25 69.5127 1.55725 70.2936 2.34485C71.0791 3.13709 71.8439 4.34711 72.513 5.94272C73.8491 9.12869 74.7052 13.6168 74.7052 18.6392Z"
        fill="white" stroke="#2F80ED" stroke-width="2.5" />
    <ellipse cx="32.063" cy="21.3449" rx="3.00633" ry="8.11709" fill="#2F80ED" />
    <ellipse cx="68.1391" cy="21.3449" rx="3.00633" ry="8.11709" fill="#2F80ED" />
    <path
        d="M88.5348 56.2184C88.5348 74.8084 71.3482 90.1424 49.8006 90.1424C28.2529 90.1424 11.0664 74.8084 11.0664 56.2184C11.0664 37.6284 28.2529 22.2943 49.8006 22.2943C71.3482 22.2943 88.5348 37.6284 88.5348 56.2184Z"
        fill="white" stroke="#2F80ED" stroke-width="2.5" />
    <path
        d="M78.9615 56.8195C78.9615 68.9401 68.7399 83.576 49.8001 83.576C29.0564 83.576 20.6387 68.9401 20.6387 56.8195C20.6387 44.699 34.0267 39.6836 49.8001 39.6836C65.5734 39.6836 78.9615 44.699 78.9615 56.8195Z"
        fill="#2F80ED" fill-opacity="0.5" />
    <path
        d="M54.911 74.1327C54.911 75.9591 53.1196 78.1645 49.8002 78.1645C46.1647 78.1645 44.6895 75.9591 44.6895 74.1327C44.6895 72.3063 47.0358 72.1519 49.8002 72.1519C52.5646 72.1519 54.911 72.3063 54.911 74.1327Z"
        fill="#24245D" fill-opacity="0.8" />
    <ellipse cx="38.9768" cy="58.0223" rx="7.51582" ry="9.31962" fill="#24245D" />
    <ellipse cx="40.1791" cy="56.5191" rx="5.11076" ry="6.61392" fill="white" />
    <ellipse cx="60.6232" cy="58.0221" rx="7.51582" ry="9.31962" fill="#24245D" />
    <ellipse cx="61.8256" cy="56.519" rx="5.11076" ry="6.61392" fill="white" />
</svg>