<?xml version="1.0" standalone="no"?>
<!DOCTYPE svg PUBLIC "-//W3C//DTD SVG 20010904//EN"
 "http://www.w3.org/TR/2001/REC-SVG-20010904/DTD/svg10.dtd">
<svg version="1.0" xmlns="http://www.w3.org/2000/svg"
 width="72px" height="72px" viewBox="0 0 329.000000 332.000000"
 preserveAspectRatio="xMidYMid meet">

<g transform="translate(0.000000,332.000000) scale(0.100000,-0.100000)"
fill="#000000" stroke="none">
<path d="M1668 3214 c-106 -53 -216 -112 -243 -130 -50 -32 -85 -84 -85 -122
0 -26 48 -119 64 -125 8 -3 61 22 117 57 57 34 136 79 174 101 39 21 97 56
129 77 51 33 67 38 118 38 40 0 72 -7 99 -21 47 -23 389 -360 412 -406 9 -17
19 -49 23 -72 4 -23 9 -41 13 -41 3 1 18 17 34 37 19 26 27 48 27 78 0 79 -35
126 -267 356 -324 322 -318 321 -615 173z"/>
<path d="M993 2869 c-23 -5 -83 -31 -135 -58 -51 -26 -230 -117 -397 -201
-331 -168 -386 -206 -427 -295 -32 -67 -32 -147 -1 -204 32 -61 765 -791 828
-826 27 -14 71 -30 98 -34 65 -10 171 3 220 29 39 19 81 27 81 14 0 -4 -14
-35 -31 -70 -52 -104 -51 -215 2 -332 27 -58 767 -814 837 -854 121 -71 273
-7 359 152 48 87 263 516 263 524 0 3 -69 6 -154 6 l-153 0 -38 -61 c-51 -82
-108 -119 -185 -119 -76 0 -119 24 -227 130 -49 47 -126 120 -173 162 -240
215 -274 260 -293 393 -12 86 -3 153 27 197 12 18 57 85 100 148 43 63 85 122
93 132 10 11 11 18 3 23 -7 4 -18 -3 -27 -15 -11 -16 -18 -19 -23 -10 -6 10
-44 -10 -139 -69 -174 -109 -201 -121 -285 -121 -122 0 -121 -1 -484 388 -89
95 -169 186 -177 202 -25 49 -30 115 -11 163 32 83 37 87 595 411 96 56 174
106 175 111 1 6 -33 27 -74 47 -83 42 -171 55 -247 37z"/>
<path d="M1691 2705 c-36 -41 -39 -68 -12 -109 36 -54 310 -323 347 -341 61
-29 88 -14 219 113 130 128 133 135 85 217 -29 50 -32 50 -44 -5 -6 -27 -146
-161 -189 -181 -48 -22 -89 -4 -168 74 -164 162 -189 193 -189 231 0 20 -4 36
-9 36 -5 0 -23 -16 -40 -35z"/>
<path d="M2587 2539 c-26 -17 -47 -35 -47 -40 0 -5 15 -9 33 -9 64 -1 109 -35
294 -221 190 -193 222 -237 223 -312 0 -39 -18 -89 -50 -137 -9 -14 -27 -42
-39 -62 l-23 -38 117 0 116 0 36 77 c31 68 35 84 30 135 -3 32 -14 77 -26 100
-31 64 -454 491 -512 517 -62 29 -98 26 -152 -10z"/>
<path d="M2465 2368 c-30 -16 -78 -63 -166 -160 -116 -129 -113 -145 81 -345
154 -158 185 -184 229 -190 32 -4 43 0 75 28 l38 33 -48 12 c-42 10 -63 27
-170 136 -166 169 -169 186 -56 317 83 96 89 100 132 101 l35 0 -30 26 c-25
21 -86 55 -97 54 -2 0 -12 -6 -23 -12z"/>
</g>
</svg>
