
<svg width="189" height="58" viewBox="0 0 189 58" fill="none" xmlns="http://www.w3.org/2000/svg">
<path d="M39.33 0L68.3299 14.1915L10.3301 14.2009L39.33 0Z" fill="white"/>
<path d="M39.33 28.3926L68.3299 14.1917H10.3301L39.33 28.3926Z" fill="white"/>
<path d="M39.3303 29L11.5645 15.4255V44.4255L39.3303 57.9999V29Z" fill="white"/>
<path d="M39.3302 34.967L18.3516 24.6804V30.5421L39.3302 40.4144V34.967Z" fill="#053D71"/>
<path d="M39.3302 46.0736L18.3516 35.7871V41.6488L39.3302 51.5211V46.0736Z" fill="#053D71"/>
<path d="M39.3279 29L67.0938 15.4255V44.4255L39.3279 57.9999V29Z" fill="white"/>
<path d="M50 33.0001L58 29.0001V42.0001L50 46.0001V33.0001Z" fill="#053D71"/>
<path d="M30.0742 14.1917L39.3295 9.87256L48.8933 14.1917L39.3295 18.5108L30.0742 14.1917Z" fill="#053D71"/>
<path d="M2.61719 17.8939H19.2767V9.87262L2.61719 17.8939Z" fill="white"/>
<path d="M4.77676 17.894H2.61719L30.0746 14.1919L31.6171 14.5004L4.77676 17.894Z" fill="#053D71"/>
<path d="M3.5428 17.7473L2.92578 17.8292V25.9668H3.5428V17.7473Z" fill="white"/>
<circle cx="3" cy="28.0001" r="3" fill="white"/>
<path d="M3.11215 29.6675L5.80632 39.0004L3.11215 36.6672L0.417969 39.0004L3.11215 29.6675Z" fill="white"/>
<path d="M39.6385 28.3831H39.0215V58.0001H39.6385V28.3831Z" fill="#053D71"/>
<path d="M91.5518 39H82.1318C81.8518 39 81.7118 38.86 81.7118 38.58V20.13C81.7118 19.85 81.8518 19.71 82.1318 19.71H91.5518C91.8318 19.71 91.9718 19.85 91.9718 20.13V21.21C91.9718 21.49 91.8318 21.63 91.5518 21.63H84.2018C84.0018 21.63 83.9018 21.72 83.9018 21.9V27.96C83.9018 28.14 84.0018 28.23 84.2018 28.23H90.6218C90.9018 28.23 91.0418 28.37 91.0418 28.65V29.73C91.0418 30.01 90.9018 30.15 90.6218 30.15H84.2018C84.0018 30.15 83.9018 30.24 83.9018 30.42V36.81C83.9018 36.99 84.0018 37.08 84.2018 37.08H91.5518C91.8318 37.08 91.9718 37.22 91.9718 37.5V38.58C91.9718 38.86 91.8318 39 91.5518 39ZM98.6159 37.08H103.656C105.336 37.08 106.176 36.21 106.176 34.47V24.24C106.176 22.5 105.336 21.63 103.656 21.63H98.6159C98.4159 21.63 98.3159 21.72 98.3159 21.9V36.81C98.3159 36.99 98.4159 37.08 98.6159 37.08ZM96.1259 38.58V20.13C96.1259 19.85 96.2659 19.71 96.5459 19.71H103.926C105.306 19.71 106.386 20.11 107.166 20.91C107.966 21.69 108.366 22.77 108.366 24.15V34.56C108.366 35.94 107.966 37.03 107.166 37.83C106.386 38.61 105.306 39 103.926 39H96.5459C96.2659 39 96.1259 38.86 96.1259 38.58ZM123.056 19.71H124.406C124.686 19.71 124.826 19.84 124.826 20.1V34.56C124.826 35.96 124.436 37.05 123.656 37.83C122.876 38.61 121.796 39 120.416 39H117.086C115.706 39 114.616 38.61 113.816 37.83C113.036 37.05 112.646 35.96 112.646 34.56V20.13C112.646 19.85 112.786 19.71 113.066 19.71H114.416C114.696 19.71 114.836 19.85 114.836 20.13V34.47C114.836 36.21 115.666 37.08 117.326 37.08H120.146C121.826 37.08 122.666 36.21 122.666 34.47V20.13C122.666 19.85 122.796 19.71 123.056 19.71ZM131.177 39H129.827C129.547 39 129.407 38.86 129.407 38.58V20.13C129.407 19.85 129.547 19.71 129.827 19.71H136.847C138.227 19.71 139.307 20.11 140.087 20.91C140.867 21.69 141.257 22.77 141.257 24.15V27.48C141.257 28.88 140.867 29.97 140.087 30.75C139.307 31.53 138.227 31.92 136.847 31.92H131.897C131.697 31.92 131.597 32.01 131.597 32.19V38.58C131.597 38.86 131.457 39 131.177 39ZM131.897 29.97H136.547C138.227 29.97 139.067 29.11 139.067 27.39V24.24C139.067 22.5 138.227 21.63 136.547 21.63H131.897C131.697 21.63 131.597 21.72 131.597 21.9V29.7C131.597 29.88 131.697 29.97 131.897 29.97ZM145.438 39H143.938C143.678 39 143.588 38.86 143.668 38.58L149.278 20.13C149.358 19.85 149.548 19.71 149.848 19.71H152.008C152.308 19.71 152.498 19.85 152.578 20.13L158.188 38.58C158.268 38.86 158.178 39 157.918 39H156.388C156.168 39 156.028 38.86 155.968 38.58L154.558 34.2H147.298L145.888 38.58C145.808 38.86 145.658 39 145.438 39ZM150.868 21.96L147.778 32.34H154.078L150.988 21.96H150.868ZM166.109 39H164.759C164.479 39 164.339 38.86 164.339 38.58V21.9C164.339 21.72 164.239 21.63 164.039 21.63H159.959C159.659 21.63 159.509 21.49 159.509 21.21V20.13C159.509 19.85 159.659 19.71 159.959 19.71H170.909C171.209 19.71 171.359 19.85 171.359 20.13V21.21C171.359 21.49 171.209 21.63 170.909 21.63H166.829C166.629 21.63 166.529 21.72 166.529 21.9V38.58C166.529 38.86 166.389 39 166.109 39ZM175.972 39H174.622C174.342 39 174.202 38.86 174.202 38.58V20.13C174.202 19.85 174.342 19.71 174.622 19.71H175.972C176.252 19.71 176.392 19.85 176.392 20.13V28.02C176.392 28.2 176.492 28.29 176.692 28.29H184.132C184.332 28.29 184.432 28.2 184.432 28.02V20.13C184.432 19.85 184.572 19.71 184.852 19.71H186.202C186.482 19.71 186.622 19.85 186.622 20.13V38.58C186.622 38.86 186.482 39 186.202 39H184.852C184.572 39 184.432 38.86 184.432 38.58V30.48C184.432 30.3 184.332 30.21 184.132 30.21H176.692C176.492 30.21 176.392 30.3 176.392 30.48V38.58C176.392 38.86 176.252 39 175.972 39Z" fill="white"/>
</svg>