<svg width="50" height="49" viewBox="0 0 50 49" fill="none" xmlns="http://www.w3.org/2000/svg">
<path d="M25.0821 47.9354C19.6061 47.9354 17.8986 48.7814 16.7979 44.3545H33.5067C32.461 48.2928 30.1369 47.9354 25.0821 47.9354Z" fill="white" stroke="#2F80ED" stroke-width="1.3"/>
<path d="M2.94035 29.4559C2.93491 25.457 2.16012 24.2022 6.58594 23.3923L6.60253 35.5942C2.66322 34.8359 2.94578 33.4548 2.94035 29.4559Z" fill="white" stroke="#2F80ED" stroke-width="1.3"/>
<path d="M1.03207 29.4774C1.02887 27.1249 0.624932 26.3867 2.93164 25.9106L2.9414 33.0889C0.888123 32.6424 1.03527 31.83 1.03207 29.4774Z" fill="white" stroke="#2F80ED" stroke-width="1.3"/>
<path d="M46.8897 29.4559C46.8952 25.457 47.67 24.2022 43.2441 23.3923L43.2275 35.5942C47.1669 34.8359 46.8843 33.4548 46.8897 29.4559Z" fill="white" stroke="#2F80ED" stroke-width="1.3"/>
<path d="M48.8 29.4774C48.8032 27.1249 49.2071 26.3867 46.9004 25.9106L46.8906 33.0889C48.9439 32.6424 48.7968 31.83 48.8 29.4774Z" fill="white" stroke="#2F80ED" stroke-width="1.3"/>
<path d="M19.1853 9.41774C19.1853 11.9535 18.753 14.2187 18.0791 15.8257C17.7416 16.6306 17.3563 17.2397 16.9616 17.6377C16.5693 18.0334 16.2063 18.1855 15.8859 18.1855C15.5655 18.1855 15.2025 18.0334 14.8102 17.6377C14.4155 17.2397 14.0302 16.6306 13.6927 15.8257C13.0188 14.2187 12.5865 11.9535 12.5865 9.41774C12.5865 6.88193 13.0188 4.61676 13.6927 3.00976C14.0302 2.2049 14.4155 1.5958 14.8102 1.19774C15.2025 0.802082 15.5655 0.65 15.8859 0.65C16.2063 0.65 16.5693 0.802082 16.9616 1.19774C17.3563 1.5958 17.7416 2.2049 18.0791 3.00976C18.753 4.61676 19.1853 6.88193 19.1853 9.41774Z" fill="white" stroke="#2F80ED" stroke-width="1.3"/>
<path d="M37.7165 9.41774C37.7165 11.9535 37.2843 14.2187 36.6103 15.8257C36.2728 16.6306 35.8875 17.2397 35.4928 17.6377C35.1006 18.0334 34.7375 18.1855 34.4171 18.1855C34.0968 18.1855 33.7337 18.0334 33.3415 17.6377C32.9468 17.2397 32.5615 16.6306 32.2239 15.8257C31.55 14.2187 31.1178 11.9535 31.1178 9.41774C31.1178 6.88193 31.55 4.61676 32.2239 3.00976C32.5615 2.2049 32.9468 1.5958 33.3415 1.19774C33.7337 0.802082 34.0968 0.65 34.4171 0.65C34.7375 0.65 35.1006 0.802082 35.4928 1.19774C35.8875 1.5958 36.2728 2.2049 36.6103 3.00976C37.2843 4.61676 37.7165 6.88193 37.7165 9.41774Z" fill="white" stroke="#2F80ED" stroke-width="1.3"/>
<ellipse cx="16.1909" cy="10.7846" rx="1.51899" ry="4.10127" fill="#2F80ED"/>
<ellipse cx="34.4174" cy="10.7846" rx="1.51899" ry="4.10127" fill="#2F80ED"/>
<path d="M44.7053 28.405C44.7053 37.7855 36.0321 45.5272 25.1528 45.5272C14.2734 45.5272 5.6002 37.7855 5.6002 28.405C5.6002 19.0245 14.2734 11.2828 25.1528 11.2828C36.0321 11.2828 44.7053 19.0245 44.7053 28.405Z" fill="white" stroke="#2F80ED" stroke-width="1.3"/>
<path d="M39.8854 28.7087C39.8854 34.8328 34.7208 42.2278 25.1512 42.2278C14.6702 42.2278 10.417 34.8328 10.417 28.7087C10.417 22.5846 17.1815 20.0505 25.1512 20.0505C33.1209 20.0505 39.8854 22.5846 39.8854 28.7087Z" fill="#2F80ED" fill-opacity="0.5"/>
<path d="M27.7339 37.4567C27.7339 38.3795 26.8288 39.4938 25.1516 39.4938C23.3147 39.4938 22.5693 38.3795 22.5693 37.4567C22.5693 36.5339 23.7549 36.4558 25.1516 36.4558C26.5484 36.4558 27.7339 36.5339 27.7339 37.4567Z" fill="#24245D" fill-opacity="0.8"/>
<ellipse cx="19.6842" cy="29.3165" rx="3.79747" ry="4.70887" fill="#24245D"/>
<ellipse cx="20.2913" cy="28.5571" rx="2.58228" ry="3.34178" fill="white"/>
<ellipse cx="30.6207" cy="29.3165" rx="3.79747" ry="4.70887" fill="#24245D"/>
<ellipse cx="31.2278" cy="28.5571" rx="2.58228" ry="3.34178" fill="white"/>
</svg>
