<svg width="56" height="47" viewBox="0 0 56 47" fill="none" xmlns="http://www.w3.org/2000/svg">
<path d="M31.8705 0.00012207L55.3704 11.5001L8.37061 11.5078L31.8705 0.00012207Z" fill="white"/>
<path d="M31.8705 23.0078L55.3704 11.5002H8.37061L31.8705 23.0078Z" fill="white"/>
<path d="M31.8708 23.5L9.37085 12.5V35.9999L31.8708 46.9999V23.5Z" fill="white"/>
<path d="M31.8708 28.3354L14.8708 19.9998V24.7497L31.8708 32.7497V28.3354Z" fill="#2F80ED"/>
<path d="M31.8708 37.3355L14.8708 28.9999V33.7499L31.8708 41.7498V37.3355Z" fill="#2F80ED"/>
<path d="M31.8707 23.5L54.3706 12.5V35.9999L31.8707 46.9999V23.5Z" fill="white"/>
<path d="M40.5175 26.7415L47.0002 23.5001V34.0346L40.5175 37.276V26.7415Z" fill="#2F80ED"/>
<path d="M24.3706 11.5002L31.8706 8.00024L39.6206 11.5002L31.8706 15.0002L24.3706 11.5002Z" fill="#2F80ED"/>
<path d="M2.12085 14.5002H15.6208V8.00024L2.12085 14.5002Z" fill="white"/>
<path d="M3.87084 14.5004H2.12085L24.3708 11.5004L25.6208 11.7504L3.87084 14.5004Z" fill="#2F80ED"/>
<path d="M2.87087 14.3814L2.37085 14.4477V21.0423H2.87087V14.3814Z" fill="white"/>
<circle cx="2.43115" cy="22.6898" r="2.43115" fill="white"/>
<path d="M2.52096 24.0409L4.70428 31.6041L2.52097 29.7133L0.337646 31.6041L2.52096 24.0409Z" fill="white"/>
<path d="M32.1206 23H31.6206V47H32.1206V23Z" fill="#2F80ED"/>
</svg>
